<svg xmlns="http://www.w3.org/2000/svg" viewBox="0 0 100 100" fill="#e3d6d2" stroke="#000" stroke-linejoin="round">
  <defs>
    <rect id="k100" width="2.8" height="2.8"/>
    <rect id="k150" width="4.3" height="2.8"/>
    <rect id="k200" width="5.8" height="2.8"/>
    <rect id="ksp"  width="27" height="2.8"/>
  </defs>
  <g transform="translate(0 45) scale(1 0.75)">
  <path d="M6 67v-2l8-25h75l-8 25v2H5.5"/>
  <path d="m15 40 6.5-11h75l-6 12-1.5-1"/>
  <path d="m81 67 15.5-28V29l-6 12-1.5-1-8 25v2"/>
  <path stroke-width="2" stroke="#999" stroke-linecap="round" d="M68 38.5h20"/>
  <path stroke-width=".75" stroke="#d00" d="M16 41h4"/>
  <path d="M19 34h75m.5-1h-75m.5-1h75m.5-1h-75" stroke="#888" stroke-width=".5"/>
  <g stroke-width="0.25" stroke="#888" fill="none" transform="translate(5.5 42) scale(1.11, 1.11) skewX(-17.5)">
    <g fill="#c9b9ba">
      <!-- fn row -->
      <use href="#k100" x="10" y="1"/>
      <use href="#k100" x="13" y="1"/>
      <use href="#k100" x="16" y="1"/>
      <use href="#k100" x="19" y="1"/>
      <use href="#k100" x="28" y="1"/>
      <use href="#k100" x="31" y="1"/>
      <use href="#k100" x="34" y="1"/>
      <use href="#k100" x="37" y="1"/>
      <use href="#k100" x="46" y="1"/>
      <use href="#k100" x="49" y="1"/>
      <use href="#k100" x="52" y="1"/>
      <use href="#k100" x="55" y="1"/>
      <use href="#k100" x="59" y="1"/>
      <use href="#k100" x="62" y="1"/>
      <use href="#k100" x="65" y="1"/>
      <use href="#k100" x="68" y="1"/>
    </g>
    <!-- row 1 -->
    <use href="#k100" x="10" y="5"/>
    <use href="#k100" x="13" y="5"/>
    <use href="#k100" x="16" y="5"/>
    <use href="#k100" x="19" y="5"/>
    <use href="#k100" x="22" y="5"/>
    <use href="#k100" x="25" y="5"/>
    <use href="#k100" x="28" y="5"/>
    <use href="#k100" x="31" y="5"/>
    <use href="#k100" x="34" y="5"/>
    <use href="#k100" x="37" y="5"/>
    <use href="#k100" x="40" y="5"/>
    <use href="#k100" x="43" y="5"/>
    <use href="#k100" x="46" y="5"/>
    <use href="#k100" x="49" y="5"/>
    <use href="#k100" x="52" y="5"/>
    <use href="#k100" x="55" y="5"/>
    <use href="#k100" x="59" y="5"/>
    <use href="#k100" x="62" y="5"/>
    <use href="#k100" x="65" y="5"/>
    <use href="#k100" x="68" y="5"/>
    <!-- row 2 -->
    <use href="#k150" x="10" y="8"/>
    <use href="#k100" x="14.5" y="8"/>
    <use href="#k100" x="17.5" y="8"/>
    <use href="#k100" x="20.5" y="8"/>
    <use href="#k100" x="23.5" y="8"/>
    <use href="#k100" x="26.5" y="8"/>
    <use href="#k100" x="29.5" y="8"/>
    <use href="#k100" x="32.5" y="8"/>
    <use href="#k100" x="35.5" y="8"/>
    <use href="#k100" x="38.5" y="8"/>
    <use href="#k100" x="41.5" y="8"/>
    <use href="#k100" x="44.5" y="8"/>
    <use href="#k100" x="47.5" y="8"/>
    <use href="#k100" x="50.5" y="8"/>
    <use href="#k150" x="53.5" y="8"/>
    <use href="#k100" x="59" y="8"/>
    <use href="#k100" x="62" y="8"/>
    <use href="#k100" x="65" y="8"/>
    <use href="#k100" x="68" y="8"/>
    <!-- row 3 -->
    <use href="#k100" x="10" y="11"/>
    <use href="#k100" x="13" y="11"/>
    <use href="#k100" x="16" y="11"/>
    <use href="#k100" x="19" y="11"/>
    <use href="#k100" x="22" y="11"/>
    <use href="#k100" x="25" y="11"/>
    <use href="#k100" x="28" y="11"/>
    <use href="#k100" x="31" y="11"/>
    <use href="#k100" x="34" y="11"/>
    <use href="#k100" x="37" y="11"/>
    <use href="#k100" x="40" y="11"/>
    <use href="#k100" x="43" y="11"/>
    <use href="#k100" x="46" y="11"/>
    <use href="#k100" x="49" y="11"/>
    <use href="#k200" x="52" y="11"/>
    <use href="#k100" x="59" y="11"/>
    <use href="#k100" x="62" y="11"/>
    <use href="#k100" x="65" y="11"/>
    <use href="#k100" x="68" y="11"/>
    <!-- row 4 -->
    <use href="#k100" x="10" y="14"/>
    <use href="#k150" x="13" y="14"/>
    <use href="#k100" x="17.5" y="14"/>
    <use href="#k100" x="20.5" y="14"/>
    <use href="#k100" x="23.5" y="14"/>
    <use href="#k100" x="26.5" y="14"/>
    <use href="#k100" x="29.5" y="14"/>
    <use href="#k100" x="32.5" y="14"/>
    <use href="#k100" x="35.5" y="14"/>
    <use href="#k100" x="38.5" y="14"/>
    <use href="#k100" x="41.5" y="14"/>
    <use href="#k100" x="44.5" y="14"/>
    <use href="#k150" x="47.5" y="14"/>
    <use href="#k100" x="52" y="14"/>
    <use href="#k100" x="55" y="14"/>
    <use href="#k100" x="59" y="14"/>
    <use href="#k100" x="62" y="14"/>
    <use href="#k100" x="65" y="14"/>
    <use href="#k100" x="68" y="14"/>
    <!-- space -->
    <use href="#ksp"  x="20.5" y="17"/>
  </g>
    </g>
    <g transform="translate(18 -3) scale(0.85 0.95)">
  <rect x="10" y="20" width="60" height="50"/>
  <path d="M 70 20 l 15 -12 v 50 l -15 12 v -50"/>
  <path d="M 10 20 l 15 -12 h 60 l -15 12 h -60"/>
  <path d="M 85 16 l 8 4 v 28 l -8 6"/>
  <rect fill="#999" x="13" y="23" width="54" height="40"/>
  <path stroke-width="0.5" stroke="#888" d="M10.5 65 h 59"/>
  <path stroke-width="3" stroke="#888" d="M 12 67.5 h 7"/>
  <path stroke-width="2" stroke="#888" stroke-linecap="round" d="M 33 67.5 h 13"/>
  <path stroke="#888" stroke-width="0.5" d="M 62 65 v4.5 m 4.5 0 v-4.5"/>
  <rect stroke="none" fill="#d00" x="63.5" y="66" width="1.5" height="0.7"/>
  <path fill="#cdffac" stroke-width="0.5" d="M 16 26 a 50 10 0 0 1 48 0 a 20 50 0 0 1 0 34 a 50 10 0 0 1 -48 0 a 20 50 0 0 1 0 -34"/>
  <rect fill="#777777" stroke="none" x="19" y="29" width="42" height="28"/>
  <path stroke-width="1.5" stroke="#cdffac" d="M 20.5 31 h 39 m -37 2.1 h 35 m -28 2.1 h 21 m -18 2.1 h 15 m -28 3.2 h 7 m -7 2.1 h 1"/>
</g>
</svg>
