<svg xmlns="http://www.w3.org/2000/svg" viewBox="0 0 100 100" fill="#bcbbb9" stroke="#000" stroke-linejoin="round">
  <defs>
    <rect id="k100" width="2.8" height="2.8"/>
    <rect id="k150" width="4" height="2.8"/>
    <rect id="k200" width="5.8" height="2.8"/>
    <rect id="ksp"  width="27" height="2.8"/>
    <rect id="px" width="0.9" height="2.8"/>
  </defs>
  <g transform="translate(0 -6)">
  <path stroke-width="0.6" d="M 95.7 41.4 l -0.6 -0.6 h -66 c -3 0, -3 -0, -5 3 l -10 16 l -2.2 12 l -8.5 20 c -2 6, -2 6, 2, 6 h 66"/>
  <g transform="translate(70 50) scale(0.3 1) skewY(-25)">
  <path stroke="none" d="M 5 50 c -2 0, -2 -3, 0 -4 l 30 -8 l 8 -8 h 40 c 2 0, 3 2, 4 4 l 6 11 c 2 3, 2 5, 0 5 z"/>
  <path stroke="#999" d="M 5 50 c -2 0, -2 -3, 0 -4 l 30 -8 l 8 -8 h 40 c 2 0, 3 2, 4 4"/>
  <path d="M 5 50 h 88 c 2 0, 1 -3, 0 -5 l -7.7 -14"/>
  </g>
  <path stroke="#999" stroke-width="0.5" d="M 13 72 h 66"/>
  <path stroke="#999" stroke-width="0.5" d="M 15.5 60 h 66"/>
  <path stroke="none" fill="#666" d="M 23 61.5 h 50 l -2 9 h -50 z"/>
  <path stroke="#999" stroke-width="2" stroke-linecap="round" d="M 25 66 h 15"/>
  <path stroke="none" fill="#999" d="M 52 63 h 18 l -1.5 6 h -18 z"/>
  <path stroke-width="1.5" stroke="#222" stroke-linecap="round" d="M 15 60 h 64 c 3 0, 3 0, 5 -3 l 11 -15.5"/>
  
  <g stroke-width="0.25" stroke="#888" fill="#989991" transform="translate(6 73) scale(1, 1) skewX(-23)">
    <g fill="#76726b">
      <!-- fn row -->
      <use href="#k100" x="10" y="1"/>
      <use href="#k100" x="13" y="1"/>
      <use href="#k100" x="16" y="1"/>
      <use href="#k100" x="19" y="1"/>
      <use href="#k100" x="22" y="1"/>
      <use href="#k100" x="25" y="1"/>
      <use href="#k100" x="28" y="1"/>
      <use href="#k100" x="31" y="1"/>
      <use href="#k100" x="34" y="1"/>
      <use href="#k100" x="37" y="1"/>
      <use href="#k100" x="37" y="1"/>
    </g>
    <use href="#k100" x="43" y="1"/>
    <use href="#k100" x="46" y="1"/>
    <use href="#k100" x="49" y="1"/>
    <use href="#k100" x="52" y="1"/>
    <g fill="#76726b">
      <use href="#k100" x="58" y="1"/>
      <use href="#k100" x="61" y="1"/>
      <use href="#k100" x="64" y="1"/>
      <use href="#k100" x="67" y="1"/>
    </g>
    <!-- row 1 -->
    <use href="#k100" fill="#76726b" x="10" y="5"/>
    <use href="#k100" x="13" y="5"/>
    <use href="#k100" x="16" y="5"/>
    <use href="#k100" x="19" y="5"/>
    <use href="#k100" x="22" y="5"/>
    <use href="#k100" x="25" y="5"/>
    <use href="#k100" x="28" y="5"/>
    <use href="#k100" x="31" y="5"/>
    <use href="#k100" x="34" y="5"/>
    <use href="#k100" x="37" y="5"/>
    <use href="#k100" x="40" y="5"/>
    <use href="#k100" x="43" y="5"/>
    <use href="#k100" x="46" y="5"/>
    <use href="#k100" x="49" y="5"/>
    <use href="#k100" fill="#76726b" x="52" y="5"/>
    <use href="#k100" x="58" y="5"/>
    <use href="#k100" x="61" y="5"/>
    <use href="#k100" x="64" y="5"/>
    <use href="#k100" x="67" y="5"/>
    <!-- row 2 -->
    <use href="#k150" fill="#76726b" x="10" y="8"/>
    <use href="#k100" x="14" y="8"/>
    <use href="#k100" x="17" y="8"/>
    <use href="#k100" x="20" y="8"/>
    <use href="#k100" x="23" y="8"/>
    <use href="#k100" x="26" y="8"/>
    <use href="#k100" x="29" y="8"/>
    <use href="#k100" x="32" y="8"/>
    <use href="#k100" x="35" y="8"/>
    <use href="#k100" x="38" y="8"/>
    <use href="#k100" x="41" y="8"/>
    <use href="#k100" x="44" y="8"/>
    <use href="#k100" x="47" y="8"/>
    <path fill="#76726b" d="M 50 8 h 4 v5.8 h -2.8 v -3 h -1.2 z"/>
    <use href="#k100" x="58" y="8"/>
    <use href="#k100" x="61" y="8"/>
    <use href="#k100" x="64" y="8"/>
    <use href="#k100" x="67" y="8"/>
    <!-- row 3 -->
    <use href="#k150" fill="#76726b" x="11.2" y="11"/>
    <use href="#k100" x="15.2" y="11"/>
    <use href="#k100" x="18.2" y="11"/>
    <use href="#k100" x="21.2" y="11"/>
    <use href="#k100" x="24.2" y="11"/>
    <use href="#k100" x="27.2" y="11"/>
    <use href="#k100" x="30.2" y="11"/>
    <use href="#k100" x="33.2" y="11"/>
    <use href="#k100" x="36.2" y="11"/>
    <use href="#k100" x="39.2" y="11"/>
    <use href="#k100" x="42.2" y="11"/>
    <use href="#k100" x="45.2" y="11"/>
    <use href="#k100" x="48.2" y="11"/>
    <use href="#k100" x="58" y="11"/>
    <use href="#k100" x="61" y="11"/>
    <use href="#k100" x="64" y="11"/>
    <use href="#k100" x="67" y="11"/>
    <!-- row 4 -->
    <use href="#k200" fill="#76726b" x="11.2" y="14"/>
    <use href="#k100" x="17.2" y="14"/>
    <use href="#k100" x="20.2" y="14"/>
    <use href="#k100" x="23.2" y="14"/>
    <use href="#k100" x="26.2" y="14"/>
    <use href="#k100" x="29.2" y="14"/>
    <use href="#k100" x="32.2" y="14"/>
    <use href="#k100" x="35.2" y="14"/>
    <use href="#k100" x="38.2" y="14"/>
    <use href="#k100" x="41.2" y="14"/>
    <use href="#k100" x="44.2" y="14"/>
    <use href="#k150" fill="#76726b" x="47.2" y="14"/>
    <use href="#k100" fill="#76726b" x="51.2" y="14"/>
    <use href="#k100" x="58" y="14"/>
    <use href="#k100" x="61" y="14"/>
    <use href="#k100" x="64" y="14"/>
    <rect x="67" y="14" width="2.8" height="5.8"/>
    <!-- space row -->
    <use href="#k150" fill="#76726b" x="15" y="17"/>
    <use href="#ksp" x="19" y="17"/>
    <use href="#k150" x="57" y="17"/>
    <use href="#k100" x="61" y="17"/>
    <use href="#k100" x="64" y="17"/>
  </g>

  <g transform="translate(23 0) scale(0.7 0.8)">
  <path d="M 75 17 c 9 -2, 9 6, 11 12 l 5 23 l -16 17"/>
  <path d="M 14 17 h 56 c 6 0, 6 0, 6 6 v 39 c 0 7, 0 7, -7 7  h -65 c -7 0, -7 0, -5 -7 l 9 -39 c 1 -6, 1 -6, 6, -6"/>
  <path fill="#444" transform="translate(4 4) scale(0.9, 0.9)" d="M 14 17 h 56 c 6 0, 6 0, 6 6 v 39 c 0 7, 0 7, -7 7  h -65 c -7 0, -7 0, -5 -7 l 9 -39 c 1 -6, 1 -6, 6, -6"/>
  <path fill="#000" stroke-width="0.5" d="M 16 26 a 50 10 0 0 1 48 0 a 20 50 0 0 1 0 34 a 50 10 0 0 1 -48 0 a 20 50 0 0 1 0 -34"/>
  <rect fill="#000" stroke="none" x="20" y="30" width="40" height="26"/>
  <g stroke="#000" stroke-width="0.1" fill="#65D045" >
    <use href="#px" x="31" y="32"/><use href="#px" x="32" y="32"/>
    <use href="#px" x="33" y="32"/><use href="#px" x="34" y="32"/>
    <use href="#px" x="35" y="32"/><use href="#px" x="36" y="32"/>
    <use href="#px" x="41" y="32"/><use href="#px" x="42" y="32"/>
    <use href="#px" x="43" y="32"/><use href="#px" x="44" y="32"/>
    <use href="#px" x="45" y="32"/><use href="#px" x="46" y="32"/>
    <use href="#px" x="33" y="35"/><use href="#px" x="34" y="35"/>
    <use href="#px" x="43" y="35"/><use href="#px" x="44" y="35"/>
    <use href="#px" x="33" y="38"/><use href="#px" x="34" y="38"/>
    <use href="#px" x="43" y="38"/><use href="#px" x="44" y="38"/>
    <use href="#px" x="33" y="41"/><use href="#px" x="34" y="41"/>
    <use href="#px" x="43" y="41"/><use href="#px" x="44" y="41"/>
    <use href="#px" x="33" y="44"/><use href="#px" x="34" y="44"/>
    <use href="#px" x="43" y="44"/><use href="#px" x="44" y="44"/>
    <use href="#px" x="33" y="47"/><use href="#px" x="34" y="47"/>
    <use href="#px" x="43" y="47"/><use href="#px" x="44" y="47"/>
    <use href="#px" x="31" y="50"/><use href="#px" x="32" y="50"/>
    <use href="#px" x="33" y="50"/><use href="#px" x="34" y="50"/>
    <use href="#px" x="35" y="50"/><use href="#px" x="36" y="50"/>
    <use href="#px" x="41" y="50"/><use href="#px" x="42" y="50"/>
    <use href="#px" x="43" y="50"/><use href="#px" x="44" y="50"/>
    <use href="#px" x="45" y="50"/><use href="#px" x="46" y="50"/>
  </g>
  </g>  
  </g>
</svg>
