<svg xmlns="http://www.w3.org/2000/svg" viewBox="0 0 100 100" fill="#464644" stroke="#000" stroke-linejoin="round">
  <defs>
    <rect id="kfn" fill="#979890" width="5.4" height="1.1"/>
    <rect id="k100" width="2.8" height="2.8"/>
    <rect id="k150" width="4.3" height="2.8"/>
    <rect id="k200" width="5.8" height="2.8"/>
    <rect id="ksp"  width="27" height="2.8"/>
    <path id="karr-u" transform="scale(0.08 0.08) rotate(45)" fill="#979890" d="M0 0h24v7H12l12 11-6 6L7 12v12H0z"/>
    <path id="karr-r" transform="scale(0.08 0.08) rotate(135)" fill="#979890" d="M0 0h24v7H12l12 11-6 6L7 12v12H0z"/>
    <path id="karr-d" transform="scale(0.08 0.08) rotate(225)" fill="#979890" d="M0 0h24v7H12l12 11-6 6L7 12v12H0z"/>
    <path id="karr-l" transform="scale(0.08 0.08) rotate(315)" fill="#979890" d="M0 0h24v7H12l12 11-6 6L7 12v12H0z"/>
  </defs>
  <g transform="translate(0 55) scale(1 0.75)">
  <path d="M 73 51 l 17 -12 v -6"/>
  <path d="M 72.5 51 l 19 -19 l -1 -7 l -19 24 z"/>
  <path d="M 72.5 51 h -60 l -1 -2 h 60 z"/>
  <path d="M 71.5 49 h -60 l 19 -24 h 60"/>
  <path stroke-width="0.5" d="M 71 47.5 l 18 -22.5 l -1 -7 l -5 6.5 l -1 7 l -10 13 z"/>
  <path stroke-width="0.5" d="M 71 47.5 l 1.2 -3.2 h -58 l -1.2 3.2 h 58 z"/>
  <path stroke-width="0.5" d="M 72.2 44.3 l 10 -13 h -58 l -10 13"/>
  <path stroke-width="0.5" d="M 82.2 31.3 l 1 -7 h -58 l -1 7 h 58"/>
  <path stroke-width="0.5" d="M 83.2 24.3 l 5 -6.5 h -58 l -5 6.5 h 58"/>
  <path stroke-width="1.6" stroke="#888" stroke-linecap="round" d="M 29 23 h 28"/>
  <rect stroke="none" fill="#d00" x="23" y="43" width="1.5" height="1"/>
  <path d="M 29 21.5 l 1 -3 l 3 -3.5 v3.1 "/>
  <path d="M 31 21.5 l 1 -3 l 3 -3.5 v3.1 "/>
  <path d="M 33 21.5 l 1 -3 l 3 -3.5 v3.1 "/>
  <path d="M 35 21.5 l 1 -3 l 3 -3.5 v3.1 "/>
  <path d="M 37 21.5 l 1 -3 l 3 -3.5 v3.1 "/>
  <path d="M 39 21.5 l 1 -3 l 3 -3.5 v3.1 "/>
  <path d="M 41 21.5 l 1 -3 l 3 -3.5 v3.1 "/>
  <path d="M 43 21.5 l 1 -3 l 3 -3.5 v3.1 "/>
  <path d="M 45 21.5 l 1 -3 l 3 -3.5 v3.1 "/>
  <path d="M 47 21.5 l 1 -3 l 3 -3.5 v3.1 "/>
  <path d="M 49 21.5 l 1 -3 l 3 -3.5 v3.1 "/>
  <path d="M 51 21.5 l 1 -3 l 3 -3.5 v3.1 "/>
  <path d="M 53 21.5 l 1 -3 l 3 -3.5 v3.1 "/>
  <path d="M 55 21.5 l 1 -3 l 3 -3.5 v3.1 "/>
  <path d="M 57 21.5 l 1 -3 l 3 -3.5 v3.1 "/>
  <path d="M 59 21.5 l 1 -3 l 3 -3.5 v3.1 "/>
  <path d="M 61 21.5 l 1 -3 l 3 -3.5 v3.1 "/>
  <path d="M 63 21.5 l 1 -3 l 3 -3.5 v3.1 "/>
  <path d="M 65 21.5 l 1 -3 l 3 -3.5 v3.1 "/>
  <path d="M 67 21.5 l 1 -3 l 3 -3.5 v3.1 "/>
  <path d="M 69 21.5 l 1 -3 l 3 -3.5 v3.1 "/>
  <path d="M 71 21.5 l 1 -3 l 3 -3.5 v3.1 "/>
  <path d="M 73 21.5 l 1 -3 l 3 -3.5 v3.1 "/>
  <path d="M 75 21.5 l 1 -3 l 3 -3.5 v3.1 "/>
  <path d="M 77 21.5 l 1 -3 l 3 -3.5 v3.1 "/>
  <path d="M 79 21.5 l 1 -3 l 3 -3.5 v3.1 "/>
  <path d="M 81 21.5 l 1 -3 l 3 -3.5 v3.1 "/>
  <path d="M 83 21.5 l 1 -3 l 3 -3.5 v3.1 "/>
  <path stroke-width="0.5" d="M 83 21.6 l 3.5 -4 "/>
  <g stroke-width="0.25" stroke="#888" fill="#dbdcde" transform="translate(19 28) scale(1.1, 0.8) skewX(-31)">
    <!-- fn row -->
    <use href="#kfn" x="8" y="0"/>
    <use href="#kfn" x="14" y="0"/>
    <use href="#kfn" x="20" y="0"/>
    <use href="#kfn" x="26" y="0"/>
    <!-- row 1 -->
    <use href="#k100" x="10" y="5"/>
    <use href="#k100" x="13" y="5"/>
    <use href="#k100" x="16" y="5"/>
    <use href="#k100" x="19" y="5"/>
    <use href="#k100" x="22" y="5"/>
    <use href="#k100" x="25" y="5"/>
    <use href="#k100" x="28" y="5"/>
    <use href="#k100" x="31" y="5"/>
    <use href="#k100" x="34" y="5"/>
    <use href="#k100" x="37" y="5"/>
    <use href="#k100" x="40" y="5"/>
    <use href="#k100" x="43" y="5"/>
    <use href="#k100" x="46" y="5"/>
    <use href="#k100" x="49" y="5"/>
    <use href="#k100" x="52" y="5"/>
    <use href="#k100" x="55" y="5"/>
    <!-- row 2 -->
    <use href="#k150" x="10" y="8"/>
    <use href="#k100" x="14.5" y="8"/>
    <use href="#k100" x="17.5" y="8"/>
    <use href="#k100" x="20.5" y="8"/>
    <use href="#k100" x="23.5" y="8"/>
    <use href="#k100" x="26.5" y="8"/>
    <use href="#k100" x="29.5" y="8"/>
    <use href="#k100" x="32.5" y="8"/>
    <use href="#k100" x="35.5" y="8"/>
    <use href="#k100" x="38.5" y="8"/>
    <use href="#k100" x="41.5" y="8"/>
    <use href="#k100" x="44.5" y="8"/>
    <use href="#k100" x="47.5" y="8"/>
    <use href="#k100" x="50.5" y="8"/>
    <use href="#k150" x="53.5" y="8"/>
    <!-- row 3 -->
    <use href="#k100" x="10" y="11"/>
    <use href="#k100" x="13" y="11"/>
    <use href="#k100" x="16" y="11"/>
    <use href="#k100" x="19" y="11"/>
    <use href="#k100" x="22" y="11"/>
    <use href="#k100" x="25" y="11"/>
    <use href="#k100" x="28" y="11"/>
    <use href="#k100" x="31" y="11"/>
    <use href="#k100" x="34" y="11"/>
    <use href="#k100" x="37" y="11"/>
    <use href="#k100" x="40" y="11"/>
    <use href="#k100" x="43" y="11"/>
    <use href="#k100" x="46" y="11"/>
    <use href="#k200" x="49" y="11"/>
    <!-- row 4 -->
    <use href="#k100" x="10" y="14"/>
    <use href="#k150" x="13" y="14"/>
    <use href="#k100" x="17.5" y="14"/>
    <use href="#k100" x="20.5" y="14"/>
    <use href="#k100" x="23.5" y="14"/>
    <use href="#k100" x="26.5" y="14"/>
    <use href="#k100" x="29.5" y="14"/>
    <use href="#k100" x="32.5" y="14"/>
    <use href="#k100" x="35.5" y="14"/>
    <use href="#k100" x="38.5" y="14"/>
    <use href="#k100" x="41.5" y="14"/>
    <use href="#k100" x="44.5" y="14"/>
    <use href="#k150" x="47.5" y="14"/>
    <!-- space -->
    <use href="#ksp"  x="20.5" y="17"/>
    <!-- arrows -->
    <use href="#karr-u" x="55" y="14.2"/>
    <use href="#karr-r" x="58" y="17.2"/>
    <use href="#karr-d" x="55" y="20.2"/>
    <use href="#karr-l" x="52" y="17.2"/>
  </g>
  </g>
  <g transform="translate(16 -1) scale(0.9 0.9)">
  <rect x="10" y="20" width="60" height="50"/>
  <path d="M 70 20 l 15 -12 v 50 l -15 12 v -50"/>
  <path d="M 10 20 l 15 -12 h 60 l -15 12 h -60"/>
  <path fill="#333" d="M 85 16 l 8 4 v 28 l -8 6"/>
  <rect fill="#555" x="13" y="23" width="54" height="40"/>
  <path stroke-width="0.5" stroke="#888" d="M10.5 65 h 59"/>
  <path stroke-width="2" stroke="#888" stroke-linecap="round" d="M 30 66.5 h 20"/>
  <rect stroke="none" fill="#555" x="65" y="65.5" width="2" height="2"/>
  <path fill="#ff9bd8" stroke-width="0.5" d="M 16 26 a 50 10 0 0 1 48 0 a 20 50 0 0 1 0 34 a 50 10 0 0 1 -48 0 a 20 50 0 0 1 0 -34"/>
  <rect fill="#ffffff" stroke="none" x="20" y="30" width="40" height="26"/>
  <path stroke-width="1.5" stroke="#000" d="M 21 32 h 38 m -38 2 h 19 m -20 3 h 6 m -6 1.7 h 1"/>
</g>
  
</svg>
