<svg xmlns="http://www.w3.org/2000/svg" viewBox="0 0 100 100" fill="#fffadd" stroke="#000" stroke-linejoin="round">
  <defs>
    <rect id="k100" width="2.8" height="2.8"/>
    <rect id="k150" width="4.3" height="2.8"/>
    <rect id="k200" width="5.8" height="2.8"/>
    <rect id="ksp" width="29.8" height="2.8"/>
  </defs>
  <g transform="translate(0 48)scale(1, 0.6)">
  <path d="M8 76c-2-1-2-6-2-6s-1-5 1-13l10-25 3-4h74l-2 5-10 25c-3 8-2 13-2 13s0 5 1.5 5H8"/>
  <path d="m82 76 14-24v-8l-2-16-3 4-10 25c-3 8-2 13-2 13s0 5 3.2 6"/>
  <path stroke="#888" stroke-width=".5" d="M20.2 28.5h72.6m-.6 1h-72.6m-.7 1h72.5m-.7 1h-72.5"/>
  <path class="c-badge" stroke-width="2" stroke-linecap="round" stroke="#666" d="M24 30h20m36 0h5"/>
  <circle class="c-pwr" fill="#d00" cx="83" cy="30" r=".75" stroke="none"/>
  <path stroke="#888" stroke-width=".5" d="M6.5 70h72 m 0.9 -0.2 l 16 -27"/>
  <path stroke="none" fill="#444" d="M 86 59 l 8 -14 v 8 l -8 14"/>
  <g stroke="#888" fill="#47362e" stroke-width="0.25" class="c-key" transform="scale(1.2 1.2) skewX(-22) translate(19, -6)">
    <!-- row 1 -->
    <use href="#k100" x="10" y="38"/>
    <use href="#k100" x="13" y="38"/>
    <use href="#k100" x="16" y="38"/>
    <use href="#k100" x="19" y="38"/>
    <use href="#k100" x="22" y="38"/>
    <use href="#k100" x="25" y="38"/>
    <use href="#k100" x="28" y="38"/>
    <use href="#k100" x="31" y="38"/>
    <use href="#k100" x="34" y="38"/>
    <use href="#k100" x="37" y="38"/>
    <use href="#k100" x="40" y="38"/>
    <use href="#k100" x="43" y="38"/>
    <use href="#k100" x="46" y="38"/>
    <use href="#k100" x="49" y="38"/>
    <use href="#k100" x="52" y="38"/>
    <use href="#k100" x="55" y="38"/>
    <!-- row 2 -->
    <use href="#k150" x="10" y="41"/>
    <use href="#k100" x="14.5" y="41"/>
    <use href="#k100" x="17.5" y="41"/>
    <use href="#k100" x="20.5" y="41"/>
    <use href="#k100" x="23.5" y="41"/>
    <use href="#k100" x="26.5" y="41"/>
    <use href="#k100" x="29.5" y="41"/>
    <use href="#k100" x="32.5" y="41"/>
    <use href="#k100" x="35.5" y="41"/>
    <use href="#k100" x="38.5" y="41"/>
    <use href="#k100" x="41.5" y="41"/>
    <use href="#k100" x="44.5" y="41"/>
    <use href="#k100" x="47.5" y="41"/>
    <use href="#k100" x="50.5" y="41"/>
    <use href="#k150" x="53.5" y="41"/>
    <!-- row 3 -->
    <use href="#k100" x="9" y="44"/>
    <use href="#k100" x="12" y="44"/>
    <use href="#k100" x="15" y="44"/>
    <use href="#k100" x="18" y="44"/>
    <use href="#k100" x="21" y="44"/>
    <use href="#k100" x="24" y="44"/>
    <use href="#k100" x="27" y="44"/>
    <use href="#k100" x="30" y="44"/>
    <use href="#k100" x="33" y="44"/>
    <use href="#k100" x="36" y="44"/>
    <use href="#k100" x="39" y="44"/>
    <use href="#k100" x="42" y="44"/>
    <use href="#k100" x="45" y="44"/>
    <use href="#k100" x="48" y="44"/> 
    <use href="#k200" x="51" y="44"/>
    <!-- row 4 -->
    <use href="#k100" x="9" y="47"/>
    <use href="#k150" x="12" y="47"/>
    <use href="#k100" x="16.5" y="47"/>
    <use href="#k100" x="19.5" y="47"/>
    <use href="#k100" x="22.5" y="47"/>
    <use href="#k100" x="25.5" y="47"/>
    <use href="#k100" x="28.5" y="47"/>
    <use href="#k100" x="31.5" y="47"/>
    <use href="#k100" x="34.5" y="47"/>
    <use href="#k100" x="37.5" y="47"/>
    <use href="#k100" x="40.5" y="47"/>
    <use href="#k100" x="43.5" y="47"/>
    <use href="#k150" x="46.5" y="47"/>
    <use href="#k100" x="51" y="47"/>
    <use href="#k100" x="54" y="47"/>
    <!-- space -->
    <use href="#ksp"  x="18" y="50"/>
    <!-- fn keys -->
    <g fill="#bf8f58" class="c-fn">
      <use href="#k150" x="60" y="38"/>
      <use href="#k150" x="60" y="41"/>
      <use href="#k150" x="60" y="44"/>
      <use href="#k150" x="60" y="47"/>
    </g>
  </g>
  </g>
  <g transform="translate(16 -1) scale(0.9 0.9)">
  <rect x="10" y="20" width="60" height="50"/>
  <path d="M 70 20 l 15 -12 v 50 l -15 12 v -50"/>
  <path d="M 10 20 l 15 -12 h 60 l -15 12 h -60"/>
  <path fill="#888" d="M 85 16 l 8 4 v 28 l -8 6"/>
  <rect fill="#555" x="13" y="23" width="54" height="40"/>
  <path stroke-width="0.5" stroke="#888" d="M10.5 65 h 59"/>
  <path stroke-width="2" stroke="#888" stroke-linecap="round" d="M 30 66.5 h 20"/>
  <rect stroke="none" fill="#555" x="65" y="65.5" width="2" height="2"/>
  <path fill="#80ffff" stroke-width="0.5" d="M 16 26 a 50 10 0 0 1 48 0 a 20 50 0 0 1 0 34 a 50 10 0 0 1 -48 0 a 20 50 0 0 1 0 -34"/>
  <rect fill="#ffffff" stroke="none" x="20" y="30" width="40" height="26"/>
  <path stroke-width="2.2" stroke="#5800FC" d="M 20.5 31 h 39 m -39 3 h 25 m -25 3 h 8 m -8 3 h 2"/>
</g>
</svg>
